<?xml version="1.0" encoding="utf-8"?>
<!-- Generator: Adobe Illustrator 18.1.0, SVG Export Plug-In . SVG Version: 6.00 Build 0)  -->
<svg version="1.1" id="Layer_1" xmlns="http://www.w3.org/2000/svg" xmlns:xlink="http://www.w3.org/1999/xlink" x="0px" y="0px"
	 viewBox="46.3 348 523.5 89.7" enable-background="new 46.3 348 523.5 89.7" xml:space="preserve">
<g>
	<polygon fill="#455560" points="80.3,389.3 57.2,389.3 57.2,365.2 46.3,365.2 46.3,424.6 57.2,424.6 57.2,399.8 80.3,399.8 
		80.3,424.6 91.2,424.6 91.2,365.2 80.3,365.2 	"/>
	<path fill="#455560" d="M125.8,405.3c0,4.9-4.1,9-9,9s-9-4.1-9-9v-25.8H97.3v25.6c0,10.7,8.8,19.5,19.5,19.5s19.5-8.8,19.5-19.5
		v-25.6h-10.4V405.3z"/>
	<path fill="#455560" d="M165.1,379.9c-5.1,0-8.8,1.4-12.3,4.9v-19.7h-10.4v36.5c0,13.7,9.8,23.2,21.1,23.2
		c12.3,0,23.2-9.6,23.2-22.3C186.7,389.5,176.8,379.9,165.1,379.9z M165.3,415c-7,0-12.5-5.9-12.5-12.7c0-7,5.3-12.7,12.5-12.7
		c5.9,0,11.3,5.9,11.3,12.7C176.8,409.2,171.3,415,165.3,415z"/>
	<path fill="#455560" d="M204.3,382.6c0-5.3,3.5-7,7.4-7c3.1,0,7.2,2.3,9.8,5.1l6.8-8c-3.5-4.5-10.2-7.8-16-7.8
		c-11.3,0-19.5,6.6-19.5,17.4c0,20.1,24.8,13.7,24.8,25c0,3.5-3.5,6.6-7.4,6.6c-6.1,0-8.2-3.1-10.9-6.1l-7.6,8
		c4.7,5.9,10.9,8.8,17.8,8.8c10.7,0,19.3-6.6,19.3-17C229.1,385.2,204.3,392.2,204.3,382.6z"/>
	<path fill="#455560" d="M256.3,379.3c-11.1,0-21.1,9.4-21.1,22.9v36.7h10.4V419c3.5,3.5,7,4.9,12.3,4.9c11.7,0,21.5-9.6,21.5-22.3
		C279.5,388.9,268.8,379.3,256.3,379.3z M258.2,414.5c-7,0-12.5-5.9-12.5-12.7c0-7,5.3-12.7,12.5-12.7c5.9,0,11.3,5.9,11.3,12.7
		C269.6,408.6,264.1,414.5,258.2,414.5z"/>
	<path fill="#455560" d="M356.1,415c-6.1,0-7.8-2.7-7.8-6.8v-18h9.6v-9.2h-9.6v-12.1l-10.4,4.7v36.7c0,9.4,6.6,14.1,15.4,14.1
		c1.2,0,3.1,0,4.1-0.4l2.7-9.4C358.6,415,357.3,415,356.1,415z"/>
	<path fill="#F47621" d="M328.6,390.8c-2-3.5-4.7-6.1-8.4-8.2c-2.7-1.4-5.3-2.5-8.4-2.9v-10.9c3.1-1.2,4.9-4.1,4.9-7.6
		c0-4.5-3.7-8.2-8.2-8.2c-4.5,0-8.2,3.7-8.2,8.2c0,3.3,1.8,6.1,4.9,7.6v10.9c-2.7,0.4-5.1,1-7.4,2.3c-4.7-3.7-20.3-15.4-29.5-22.3
		c0.2-0.8,0.4-1.6,0.4-2.5c0-5.1-4.1-9.2-9.2-9.2c-5.1,0-9.2,4.1-9.2,9.2c0,5.1,4.1,9.2,9.2,9.2c1.6,0,3.3-0.4,4.7-1.4l2,1.6
		l26.4,19.1c-1.4,1.2-2.7,2.7-3.7,4.3c-2,3.3-3.3,7-3.3,11.1c0,0.2,0,0.6,0,0.8c0,2.9,0.4,5.5,1.4,8c0.8,2.3,1.8,4.1,3.3,5.9
		l-8.8,8.8c-0.8-0.2-1.6-0.4-2.5-0.4c-1.8,0-3.7,0.8-4.9,2c-1.4,1.4-2,3.1-2,4.9s0.8,3.7,2,4.9c1.4,1.4,3.1,2,4.9,2
		c1.8,0,3.7-0.8,4.9-2c1.4-1.4,2-3.1,2-4.9c0-0.8-0.2-1.4-0.4-2l9.2-9.2c1.2,0.8,2.7,1.6,4.1,2.3c2.9,1.2,5.9,2,9.4,2
		c0.2,0,0.4,0,0.6,0c3.7,0,7.4-0.8,10.7-2.7c3.5-1.8,6.4-4.5,8.4-8c2-3.3,3.3-7.2,3.3-11.3V402C331.7,397.9,330.7,394.3,328.6,390.8
		z M317.6,409.6c-2.5,2.7-5.3,4.3-8.4,4.3c-0.2,0-0.4,0-0.6,0c-1.8,0-3.7-0.4-5.3-1.2c-2-1-3.5-2.5-4.7-4.1c-1.2-1.8-2-3.7-2-5.7
		c0-0.2,0-0.4,0-0.6c0-2,0.4-3.9,1.4-5.7c1-2,2.5-3.5,4.3-4.7c1.8-1.2,3.9-1.8,6.1-1.8h0.2c2,0,3.9,0.4,5.7,1.2
		c1.8,1,3.3,2.3,4.5,4.1c1,1.8,1.8,3.7,2,5.7c0,0.4,0,0.8,0,1.2C320.9,404.9,319.8,407.4,317.6,409.6z"/>
</g>
<g>
	<path fill="#455560" d="M383.1,424.4v-3.5h9.4v-48.1h-9.4v-3.5h24c13.5,0,20.3,4.5,20.3,13.3c0,2.7-1,5.3-3.1,7.8
		c-2,2.5-5.5,4.1-10.4,5.1v0.2c5.1,0.4,9.2,1.8,12.1,4.3c2.9,2.5,4.3,5.5,4.3,9c0,10.4-7.6,15.6-22.7,15.6h-24.4V424.4z
		 M398.5,393.8h9.6c4.3,0,7.4-1,9.6-2.9c2-2,3.3-4.7,3.3-8.4c0-3.3-1-5.7-2.9-7.4c-1.8-1.6-5.1-2.5-9.4-2.5h-10.2V393.8z
		 M398.5,421.1h10c5.3,0,9-1,11.5-3.1c2.5-2,3.5-5.1,3.5-9.4c0-3.5-1.4-6.4-4.1-8.4c-2.7-2-6.6-3.1-11.7-3.1h-9.4v24H398.5z"/>
	<path fill="#455560" d="M434.4,424.4v-3.5h7.4v-51.6h-7.4V366h12.7v55.1h7.4v3.5h-20.1V424.4z"/>
	<path fill="#455560" d="M477.2,425.2c-5.1,0-9.4-1.8-12.7-5.3c-3.3-3.5-5.1-8.2-5.1-13.9c0-5.9,1.6-10.7,5.1-14.3
		c3.5-3.7,7.6-5.5,12.5-5.5c5.1,0,9.2,1.8,12.7,5.3c3.3,3.5,5.1,8.2,5.1,13.9c0,5.9-1.6,10.7-5.1,14.3S482.1,425.2,477.2,425.2z
		 M477.4,422.1c3.3,0,5.9-1.4,8.2-4.3c2.3-2.9,3.3-7,3.3-12.3s-1.2-9.4-3.5-12.3c-2.5-2.9-5.1-4.3-8.6-4.3c-3.3,0-5.9,1.4-8.2,4.3
		c-2.3,2.9-3.3,7-3.3,12.3s1.2,9.4,3.5,12.3C471.4,420.7,474.1,422.1,477.4,422.1z"/>
	<path fill="#455560" d="M531.5,398.6c0,3.9-1.2,7-3.9,9c-2.7,2.3-5.9,3.3-10.2,3.3c-0.6,0-1.4,0-2.7-0.2c-1.2,0-2-0.2-2.5-0.2
		c-1.4,0-2.5,0.4-3.5,1c-1,0.6-1.4,1.4-1.4,2.5c0,2.3,2.5,3.5,7.6,3.5h10c6.8,0,10.2,2.7,10.2,8c0,3.5-1.6,6.4-5.1,8.8
		c-3.5,2.5-7.8,3.5-13.3,3.5c-4.9,0-8.8-0.8-11.7-2.5c-2.9-1.6-4.3-3.7-4.3-6.4c0-1.8,0.8-3.5,2.3-4.9c1.4-1.4,3.5-2.3,5.9-2.9v-0.2
		c-2.3-0.6-3.9-1.4-4.9-2.3c-1-0.8-1.4-2-1.4-3.5c0-1.4,0.6-2.7,2-3.7c1.2-1,3.1-1.8,5.3-2.5c-4.5-2.3-6.6-5.7-6.6-10.4
		c0-3.9,1.4-6.8,4.1-9c2.7-2.3,6.1-3.3,10-3.3c2,0,4.3,0.4,6.6,1.4c2.9-5.1,6.1-7.6,9.6-7.6c1.2,0,2.5,0.4,3.3,1
		c0.8,0.8,1.2,1.6,1.2,3.1c0,1-0.4,2-1,2.7s-1.4,1-2.7,1c-1,0-1.6-0.4-2.3-1c-0.6-0.6-0.8-1.4-0.8-2.5c0-0.4,0-0.6,0-0.8
		c-1.8,0.2-3.7,1.8-5.5,5.1C529.6,391,531.5,394.3,531.5,398.6z M516.7,434.8c4.1,0,7.2-0.8,9.6-2.3s3.7-3.5,3.7-5.7
		c0-3.3-2-4.9-6.1-4.9h-9.6c-2.7,0-4.7,0.6-6.1,1.8c-1.4,1.2-2.3,2.9-2.3,4.9c0,1.8,0.8,3.5,2.7,4.5
		C510.4,434.2,513.2,434.8,516.7,434.8z M517.5,408.2c2.5,0,4.5-0.8,5.9-2.5s2-4.1,2-7c0-2.9-0.8-5.1-2.3-7
		c-1.4-1.8-3.7-2.7-6.4-2.7c-2.5,0-4.5,0.8-5.9,2.5c-1.4,1.6-2.3,4.1-2.3,7.2c0,3.1,0.8,5.3,2.5,7
		C512.8,407.4,514.9,408.2,517.5,408.2z"/>
	<path fill="#455560" d="M541.3,425.2v-14.3h2.9c2.3,7.6,6.6,11.3,13.1,11.3c2.5,0,4.5-0.6,5.9-1.8s2.3-2.7,2.3-4.7
		c0-2-0.8-3.7-2.3-4.7c-1.4-1-4.3-2.3-8.2-3.3c-4.7-1.2-8-2.9-10-4.5s-2.9-3.9-2.9-6.8c0-2.9,1.2-5.3,3.5-7.6c2.3-2,5.3-3.3,8.8-3.3
		c4.9,0,8.2,1.6,10.2,4.7l1-4.7h2.7v12.9h-2.7c-1.4-3.5-2.9-6.1-4.7-7.6c-1.6-1.6-3.9-2.3-6.8-2.3c-2,0-3.9,0.6-5.3,1.6
		c-1.4,1-2.3,2.5-2.3,4.3s0.8,3.5,2.3,4.5c1.6,1.2,4.1,2.3,7.8,3.3c4.9,1.4,8.4,2.9,10.2,4.5c1.8,1.6,2.9,3.9,2.9,6.8
		c0,3.1-1.2,5.5-3.5,7.8c-2.3,2.3-5.3,3.3-9.2,3.3c-5.3,0-9.4-1.8-12.5-5.5l-1,5.5h-2.3V425.2z"/>
</g>
</svg>
